<?xml version="1.0" encoding="utf-8" ?>
<svg viewBox="0 0 67.5 40.5" width="600" xmlns="http://www.w3.org/2000/svg" xmlns:xlink="http://www.w3.org/1999/xlink">
  <defs>
    <circle id="dot" fill="hsl(235,35%,50%)" cx="-0.5" cy="-0.5" r="0.7"></circle>
    <polygon id="star" fill="hsl(235,35%,50%)" fill-rule="nonzero" stroke="hsl(235,35%,50%)" stroke-width="0.3px" stroke-linecap="round" stroke-linejoin="round" points="0,-2 1.176,1.618 -1.854,-0.75 1.854,-0.75 -1.176,1.618"></polygon>
  </defs>
  <g id="stamp" transform="translate(10)">
    <path fill="hsl(0,60%,50%)" d="
        M0,0
        h2
        h1 a2 2, 1 1 0 4,0
        h1 a2 2, 1 1 0 4,0
        h1 a2 2, 1 1 0 4,0
        h1 a2 2, 1 1 0 4,0
        h1 a2 2, 1 1 0 4,0
        L30,0
        v2
        v1 a2 2, 1 1 0 0,4
        v1 a2 2, 1 1 0 0,4
        v1 a2 2, 1 1 0 0,4
        v1 a2 2, 1 1 0 0,4
        v1 a2 2, 1 1 0 0,4
        L30,30
        h-2
        h-1 a2 2, 1 1 0 -4,0
        h-1 a2 2, 1 1 0 -4,0
        h-1 a2 2, 1 1 0 -4,0
        h-1 a2 2, 1 1 0 -4,0
        h-1 a2 2, 1 1 0 -4,0
        L0,30
        v-2
        v-1 a2 2, 1 1 0 0,-4
        v-1 a2 2, 1 1 0 0,-4
        v-1 a2 2, 1 1 0 0,-4
        v-1 a2 2, 1 1 0 0,-4
        v-1 a2 2, 1 1 0 0,-4
        z
      "></path>
    <path d="M5,5 h20 v20 h-5 v-15 h-5 v15 h-10Z" fill="white"></path>
  </g>
  <g id="ink" transform="translate(17,24)" style="mix-blend-mode:multiply;">
    <circle stroke="hsl(235,35%,50%)" fill="none" r="16"></circle>
    <circle stroke="hsl(235,35%,50%)" fill="none" r="12"></circle>
        <path fill="none" stroke="hsl(235,35%,50%)" stroke-width="1px" stroke-dasharray="2px" stroke-linecap="round" stroke-dashoffset="1.1" d="M 50,-10 c-5,0 -5,-2 -10,-2 s-5,2 -10,2 s-5,-2 -10,-2 c-3,0 -4.6,1.4 -5.0,1.8">     </path>
        <path fill="none" stroke="hsl(235,35%,50%)" stroke-width="1px" stroke-dasharray="2px" stroke-linecap="round" stroke-dashoffset="2.2" d="M 50,-5 c-5,0 -5,-2 -10,-2 s-5,2 -10,2 s-5,-2 -10,-2 c-2,0 -2.6,1.1 -3.0,1.2">     </path>
        <path fill="none" stroke="hsl(235,35%,50%)" stroke-width="1px" stroke-dasharray="2px" stroke-linecap="round" stroke-dashoffset="3.3000000000000003" d="M 50,0 c-5,0 -5,-2 -10,-2 s-5,2 -10,2 s-5,-2 -10,-2 c-1,0 -2.2,0.9 -2.4,1.0">     </path>
        <path fill="none" stroke="hsl(235,35%,50%)" stroke-width="1px" stroke-dasharray="2px" stroke-linecap="round" stroke-dashoffset="4.4" d="M 50,5 c-5,0 -5,-2 -10,-2 s-5,2 -10,2 s-5,-2 -10,-2 c-2,0 -2.4,1.0 -2.7,1.1">     </path>
        <path fill="none" stroke="hsl(235,35%,50%)" stroke-width="1px" stroke-dasharray="2px" stroke-linecap="round" stroke-dashoffset="5.5" d="M 50,10 c-5,0 -5,-2 -10,-2 s-5,2 -10,2 s-5,-2 -10,-2 c-3,0 -4.6,1.4 -5.0,1.8">     </path>
    <use xlink:href="#dot" transform="translate(14.5) rotate(0,-14.5,0)"></use>
    <use xlink:href="#dot" transform="translate(14.5) rotate(15,-14.5,0)"></use>
    <use xlink:href="#dot" transform="translate(14.5) rotate(30,-14.5,0)"></use>
    <use xlink:href="#dot" transform="translate(14.5) rotate(45,-14.5,0)"></use>
    <use xlink:href="#dot" transform="translate(14.5) rotate(60,-14.5,0)"></use>
    <use xlink:href="#dot" transform="translate(14.5) rotate(75,-14.5,0)"></use>
    <use xlink:href="#dot" transform="translate(14.5) rotate(90,-14.5,0)"></use>
    <use xlink:href="#dot" transform="translate(14.5) rotate(105,-14.5,0)"></use>
    <use xlink:href="#dot" transform="translate(14.5) rotate(120,-14.5,0)"></use>
    <use xlink:href="#dot" transform="translate(14.5) rotate(135,-14.5,0)"></use>
    <use xlink:href="#dot" transform="translate(14.5) rotate(150,-14.5,0)"></use>
    <use xlink:href="#dot" transform="translate(14.5) rotate(165,-14.5,0)"></use>
    <use xlink:href="#dot" transform="translate(14.5) rotate(180,-14.5,0)"></use>
    <use xlink:href="#dot" transform="translate(14.5) rotate(195,-14.5,0)"></use>
    <use xlink:href="#dot" transform="translate(14.5) rotate(210,-14.5,0)"></use>
    <use xlink:href="#dot" transform="translate(14.5) rotate(225,-14.5,0)"></use>
    <use xlink:href="#dot" transform="translate(14.5) rotate(240,-14.5,0)"></use>
    <use xlink:href="#dot" transform="translate(14.5) rotate(255,-14.5,0)"></use>
    <use xlink:href="#dot" transform="translate(14.5) rotate(270,-14.5,0)"></use>
    <use xlink:href="#dot" transform="translate(14.5) rotate(285,-14.5,0)"></use>
    <use xlink:href="#dot" transform="translate(14.5) rotate(300,-14.5,0)"></use>
    <use xlink:href="#dot" transform="translate(14.5) rotate(315,-14.5,0)"></use>
    <use xlink:href="#dot" transform="translate(14.5) rotate(330,-14.5,0)"></use>
    <use xlink:href="#dot" transform="translate(14.5) rotate(345,-14.5,0)"></use>
    <use xlink:href="#star" transform="translate(0,-5) rotate(0,0,5)"></use>
    <use xlink:href="#star" transform="translate(0,-5) rotate(72,0,5)"></use>
    <use xlink:href="#star" transform="translate(0,-5) rotate(144,0,5)"></use>
    <use xlink:href="#star" transform="translate(0,-5) rotate(216,0,5)"></use>
    <use xlink:href="#star" transform="translate(0,-5) rotate(288,0,5)"></use>
    <path id="text" d="M0.5,-9A 9 9, 0 1 1 -0.5,-9" fill="none" transform="rotate(72)"></path>
    <text style="font-family:monospace;font-size:2.8px;font-weight:bold;fill:hsl(235,35%,50%);">
      <textPath xlink:href="#text" side="left">PUBLISH ALL THE THINGS YOU CAN!!!</textPath>
    </text>
  </g>
</svg>